<?xml version="1.0" standalone="no"?><!DOCTYPE svg PUBLIC "-//W3C//DTD SVG 1.1//EN" "http://www.w3.org/Graphics/SVG/1.1/DTD/svg11.dtd"><svg t="1693376576042" class="icon" viewBox="0 0 1024 1024" version="1.1" xmlns="http://www.w3.org/2000/svg" p-id="2754" xmlns:xlink="http://www.w3.org/1999/xlink" width="64" height="64"><path d="M512.020898 1013.551234a498.238975 498.238975 0 0 1-354.672926-146.888758A498.238975 498.238975 0 0 1 10.480113 512.010449a498.301667 498.301667 0 0 1 146.909655-354.693823A498.238975 498.238975 0 0 1 512.020898 10.469664 498.134487 498.134487 0 0 1 866.63113 157.358421a498.44795 498.44795 0 0 1 146.930552 354.652028 498.301667 498.301667 0 0 1-146.909654 354.63113 498.176282 498.176282 0 0 1-354.63113 146.909655z m-200.135671-730.953899a80.936144 80.936144 0 0 0-80.852554 80.852554v262.807371a80.936144 80.936144 0 0 0 80.852554 80.831657h34.877982l63.026959 75.502785a30.4895 30.4895 0 0 0 21.440868 8.881452 30.4895 30.4895 0 0 0 21.440869-8.881452l62.964266-75.502785h196.436807a80.936144 80.936144 0 0 0 80.831657-80.831657V363.449889a80.936144 80.936144 0 0 0-80.831657-80.852554z" fill="#fe951e" p-id="2755"></path><path d="M613.394829 461.6056H380.261954a26.707047 26.707047 0 0 1 0-53.393196h233.132875a26.707047 26.707047 0 0 1 0 53.393196z m-97.884044 123.170058h-135.248831a26.707047 26.707047 0 0 1 0-53.393196h135.248831a26.707047 26.707047 0 0 1 0 53.393196z m0 0" fill="#fe951e" p-id="2756"></path></svg>