<?xml version="1.0" standalone="no"?><!DOCTYPE svg PUBLIC "-//W3C//DTD SVG 1.1//EN" "http://www.w3.org/Graphics/SVG/1.1/DTD/svg11.dtd"><svg t="1693376456052" class="icon" viewBox="0 0 1024 1024" version="1.1" xmlns="http://www.w3.org/2000/svg" p-id="1683" xmlns:xlink="http://www.w3.org/1999/xlink" width="64" height="64"><path d="M646.272 604.0576H365.8496a21.5552 21.5552 0 0 0 0 43.1104h280.4224a21.5552 21.5552 0 0 0 0-43.1104z" fill="#429EFD" p-id="1684"></path><path d="M512 0a512 512 0 1 0 512 512A512 512 0 0 0 512 0z m256.768 762.7264a43.904 43.904 0 0 1-44.9792 41.8816H285.3888a42.496 42.496 0 0 1-42.8544-41.8816V311.808a42.0352 42.0352 0 0 1 42.8544-41.1136h93.7728a43.9552 43.9552 0 0 1 42.8288-32.1024h47.2576a39.8848 39.8848 0 0 1 72.2688 0h46.4384a43.9296 43.9296 0 0 1 42.88 32.1024h94.3616a42.7264 42.7264 0 0 1 43.52 41.8304z" fill="#429EFD" p-id="1685"></path><path d="M502.2976 357.888a33.536 33.536 0 0 0 3.712-66.9696 34.5088 34.5088 0 0 0-35.4048 33.5104 33.5104 33.5104 0 0 0 31.6928 33.4592z" fill="#429EFD" p-id="1686"></path><path d="M646.272 459.4176H364.4416a21.5552 21.5552 0 1 0 1.408 43.0848H647.68a21.5552 21.5552 0 1 0-1.3824-43.0848z" fill="#429EFD" p-id="1687"></path></svg>