<?xml version="1.0" standalone="no"?><!DOCTYPE svg PUBLIC "-//W3C//DTD SVG 1.1//EN" "http://www.w3.org/Graphics/SVG/1.1/DTD/svg11.dtd"><svg t="1693376680128" class="icon" viewBox="0 0 1024 1024" version="1.1" xmlns="http://www.w3.org/2000/svg" p-id="3184" xmlns:xlink="http://www.w3.org/1999/xlink" width="64" height="64"><path d="M318.08 497.6384h135.68a19.4304 19.4304 0 0 0 0-38.8096h-135.68a19.4304 19.4304 0 0 0 0 38.8096z" fill="#e43d33" p-id="3185"></path><path d="M559.744 383.104l106.8032-0.1536-109.3888-103.5264v101.1712a2.56 2.56 0 0 0 2.5856 2.5088z" fill="#e43d33" p-id="3186"></path><path d="M512 0a512 512 0 1 0 512 512A512 512 0 0 0 512 0z m73.0368 785.0496c0.5632 1.3824 1.4336 2.56 2.0992 3.9168H302.4896a72.448 72.448 0 0 1-72.4224-72.5248V307.5584a72.4992 72.4992 0 0 1 72.4992-72.4992h252.1088a32.8704 32.8704 0 0 1 22.656 9.0624l130.432 123.52a32.9984 32.9984 0 0 1 10.24 23.936v115.5072h-81.7152a77.2096 77.2096 0 0 0-1.6384-7.68l-1.792-6.0928a50.2784 50.2784 0 0 0-8.5504-16.5376 49.1264 49.1264 0 0 0-17.152-13.952 54.2976 54.2976 0 0 0-24.9088-5.3504h-34.176a47.744 47.744 0 0 0-33.9968 13.0816 46.2592 46.2592 0 0 0-14.208 33.7664 66.3552 66.3552 0 0 0 1.5104 13.824 54.784 54.784 0 0 0 7.0656 17.7152 53.76 53.76 0 0 0 13.4144 14.6432 44.9024 44.9024 0 0 0 26.7776 8.7808c0.8448 4.4032 2.7648 14.5152 5.12 27.2896h-235.6992a19.4048 19.4048 0 0 0 0 38.784h243.0208c6.4256 33.92 12.8 67.9424 13.0816 69.12a130.176 130.176 0 0 0 3.7888 14.336 78.592 78.592 0 0 0 8.0896 17.536c0.7936 1.2544 1.5872 2.56 2.432 3.6096a67.4048 67.4048 0 0 0-3.456 7.04 64 64 0 0 0 0 48.128z m95.5648-15.8464a27.4688 27.4688 0 0 1-6.4512 9.5232 33.9456 33.9456 0 0 1-9.6768 6.4768 28.5696 28.5696 0 0 1-11.648 2.4064 28.16 28.16 0 0 1-11.776-2.4064 34.2016 34.2016 0 0 1-9.5232-6.4768 27.4688 27.4688 0 0 1-6.4768-9.5232 31.1296 31.1296 0 0 1 0-23.2448 27.52 27.52 0 0 1 6.4768-9.5232 30.1824 30.1824 0 0 1 9.5232-6.2976 29.824 29.824 0 0 1 11.776-2.2784 30.72 30.72 0 0 1 21.3248 8.576 27.5456 27.5456 0 0 1 6.4512 9.5232 30.72 30.72 0 0 1 0 23.2448z m134.528 0.64a30.3872 30.3872 0 0 1-16.1536 16 29.696 29.696 0 0 1-11.8016 2.4064 28.5696 28.5696 0 0 1-11.6224-2.4064 30.72 30.72 0 0 1-15.9744-16 29.0048 29.0048 0 0 1 0-23.2448 30.976 30.976 0 0 1 6.4512-9.5232 28.928 28.928 0 0 1 9.5232-6.2976 30.3104 30.3104 0 0 1 11.6224-2.2784 31.5136 31.5136 0 0 1 11.8016 2.2784 28.5696 28.5696 0 0 1 9.6768 6.2976 30.72 30.72 0 0 1 6.4768 9.5232 29.2608 29.2608 0 0 1 0 23.2448z m48.2816-201.856q-0.9472 2.9184-4.0448 11.9552t-6.9376 19.8656l-7.68 21.4784c-2.56 7.1168-4.352 12.8-5.6576 16.7936a36.352 36.352 0 0 1-10.6496 17.92 24.9344 24.9344 0 0 1-15.8208 5.12H643.072l4.8384 29.056h162.7648q15.5136 0 15.5136 13.2608a19.8912 19.8912 0 0 1-3.072 11.136 13.4912 13.4912 0 0 1-12.1088 4.6848h-169.2416a18.9696 18.9696 0 0 1-10.8032-2.9184 24.5248 24.5248 0 0 1-7.2704-7.68 45.4656 45.4656 0 0 1-4.6848-10.24 92.8256 92.8256 0 0 1-2.7392-10.24 1926.3488 1926.3488 0 0 1-5.3248-27.9552l-4.6848-24.8576c-1.7152-9.1392-3.456-18.3552-5.12-27.6224q-6.144-32.6144-13.9008-72.6528h-24.2176a13.056 13.056 0 0 1-8.064-2.432 20.864 20.864 0 0 1-5.3248-5.8112 21.9904 21.9904 0 0 1-2.9184-7.2704 34.9184 34.9184 0 0 1-0.7936-7.0912 14.2336 14.2336 0 0 1 4.352-10.6752 16.3072 16.3072 0 0 1 11.776-4.1984h32.64a23.3216 23.3216 0 0 1 10.24 1.9456 17.3312 17.3312 0 0 1 6.144 4.8384 18.7904 18.7904 0 0 1 3.2256 6.144l1.6128 5.4784a67.4048 67.4048 0 0 1 1.28 7.2704c0.4608 3.1232 0.8704 6.2976 1.3056 9.5232 0.64 3.8912 1.3056 7.9872 1.9456 12.288h220.9024a33.1264 33.1264 0 0 1 14.0544 2.4064 15.8208 15.8208 0 0 1 7.0912 5.9904 13.4912 13.4912 0 0 1 1.9456 7.68 25.1648 25.1648 0 0 1-1.024 6.8096z" fill="#e43d33" p-id="3187"></path></svg>